# xmcd
#
# Track frame offsets: 
#        150
#        13472
#        23273
#        31111
#        41433
#        49899
#        59078
#        70469
#        81513
#        90392
#        99524
#        107381
#        114544
#        125804
#        137814
#        151017
#        165546
#        178071
#        188731
#        200581
#        211456
#        221806
#        231960
#        245357
#        256232
#        267923
#        282061
#        294680
#
# Disc length: 4115 seconds
#
# Revision: 0
# Processed by: cddbd v1.5.2PL0 Copyright (c) Steve Scherf et al.
# Submitted via: ExactAudioCopy v1.0b4
#
DISCID=9a10111c
DTITLE=Hank Ballard And The Midnighters - The One And Only
DYEAR=1959
DGENRE=R&B
TTITLE0=Sugaree
TTITLE1=Rain Down Tears
TTITLE2=Cute Little Ways
TTITLE3=House With No Windows
TTITLE4=Everybody Does Wrong Some Time
TTITLE5=So Good To Be Home
TTITLE6=Kansas City
TTITLE7=I'll Keep You Happy
TTITLE8=I'm Crying Mercy, Mercy
TTITLE9=She's Got A Whole Lot Of Soul
TTITLE10=I'll PrayFor You
TTITLE11=Move, Move, Move
TTITLE12=Let's Go, Let's Go, Let's Go
TTITLE13=Mona Lisa
TTITLE14=When I Need You
TTITLE15=Goodbye - So Long
TTITLE16=I Must Be Crazy
TTITLE17=Just One More Chance
TTITLE18=The Hoochie Coochie Coo
TTITLE19=If You'd Forgive Me
TTITLE20=Summertime
TTITLE21=I'm Sick Of You
TTITLE22=I'm Thinking Of You
TTITLE23=These Young Girls
TTITLE24=Keep On Dancing
TTITLE25=Let's Go Again
TTITLE26=The Switch-A-Roo
TTITLE27=Good Twistin' Tonight
EXTD=
EXTT0=
EXTT1=
EXTT2=
EXTT3=
EXTT4=
EXTT5=
EXTT6=
EXTT7=
EXTT8=
EXTT9=
EXTT10=
EXTT11=
EXTT12=
EXTT13=
EXTT14=
EXTT15=
EXTT16=
EXTT17=
EXTT18=
EXTT19=
EXTT20=
EXTT21=
EXTT22=
EXTT23=
EXTT24=
EXTT25=
EXTT26=
EXTT27=
PLAYORDER=
